<svg xmlns="http://www.w3.org/2000/svg" viewBox="0 0 320 240" width="320" height="240">
  <!-- 방 배경 - 낮 시간, 따뜻한 베이지 톤 -->
  <rect width="320" height="240" fill="#e8d5b0"/>

  <!-- 벽 -->
  <rect x="0" y="0" width="320" height="175" fill="#d4c090"/>

  <!-- 벽 몰딩 -->
  <rect x="0" y="170" width="320" height="5" fill="#c4af80" opacity="0.6"/>

  <!-- 바닥 -->
  <rect x="0" y="175" width="320" height="65" fill="#c8a878"/>
  <!-- 바닥 나무결 -->
  <line x1="0" y1="190" x2="320" y2="190" stroke="#b89060" stroke-width="0.8" opacity="0.4"/>
  <line x1="0" y1="205" x2="320" y2="205" stroke="#b89060" stroke-width="0.8" opacity="0.4"/>
  <line x1="0" y1="220" x2="320" y2="220" stroke="#b89060" stroke-width="0.8" opacity="0.4"/>
  <line x1="80" y1="175" x2="80" y2="240" stroke="#b89060" stroke-width="0.5" opacity="0.3"/>
  <line x1="160" y1="175" x2="160" y2="240" stroke="#b89060" stroke-width="0.5" opacity="0.3"/>
  <line x1="240" y1="175" x2="240" y2="240" stroke="#b89060" stroke-width="0.5" opacity="0.3"/>

  <!-- 창문 (벽에 햇빛) -->
  <rect x="210" y="18" width="85" height="90" fill="#b8d4f0" rx="4"/>
  <rect x="210" y="18" width="85" height="90" fill="none" stroke="#9aaa88" stroke-width="3" rx="4"/>
  <!-- 창문 십자 -->
  <line x1="252" y1="18" x2="252" y2="108" stroke="#9aaa88" stroke-width="2.5"/>
  <line x1="210" y1="63" x2="295" y2="63" stroke="#9aaa88" stroke-width="2.5"/>
  <!-- 햇빛 -->
  <ellipse cx="230" cy="42" rx="16" ry="16" fill="#ffe87a" opacity="0.7"/>
  <!-- 창문 햇살이 바닥에 드리우는 효과 -->
  <polygon points="210,108 295,108 310,175 195,175" fill="#ffe87a" opacity="0.12"/>

  <!-- 작은 화분 (왼쪽 구석) -->
  <rect x="24" y="142" width="22" height="28" fill="#8b6040" rx="2"/>
  <rect x="20" y="138" width="30" height="8" fill="#7a5030" rx="2"/>
  <!-- 화분 식물 -->
  <ellipse cx="35" cy="130" rx="14" ry="12" fill="#5a8a45"/>
  <ellipse cx="24" cy="124" rx="10" ry="9" fill="#4a7a35"/>
  <ellipse cx="46" cy="126" rx="10" ry="9" fill="#4a7a35"/>
  <ellipse cx="35" cy="118" rx="9" ry="9" fill="#6a9a55"/>

  <!-- 이불 (바닥에 깔린 요/이불) -->
  <!-- 이불 본체 -->
  <ellipse cx="160" cy="210" rx="110" ry="28" fill="#e8c8a0" opacity="0.6"/>
  <!-- 요 (매트) -->
  <rect x="55" y="185" width="210" height="50" fill="#f0e0c0" rx="8"/>
  <rect x="55" y="185" width="210" height="50" fill="none" stroke="#d4c4a0" stroke-width="1.5" rx="8"/>
  <!-- 요 퀼팅 선 -->
  <line x1="105" y1="185" x2="105" y2="235" stroke="#d4c4a0" stroke-width="1" opacity="0.5"/>
  <line x1="160" y1="185" x2="160" y2="235" stroke="#d4c4a0" stroke-width="1" opacity="0.5"/>
  <line x1="215" y1="185" x2="215" y2="235" stroke="#d4c4a0" stroke-width="1" opacity="0.5"/>
  <line x1="55" y1="210" x2="265" y2="210" stroke="#d4c4a0" stroke-width="1" opacity="0.5"/>

  <!-- 걷어진 이불 (구겨진 형태) -->
  <ellipse cx="230" cy="200" rx="42" ry="22" fill="#c8a8d8"/>
  <ellipse cx="228" cy="197" rx="40" ry="20" fill="#d4b8e0"/>
  <!-- 이불 주름 -->
  <path d="M195,195 Q210,185 230,190 Q248,195 260,188" fill="none" stroke="#c4a8d0" stroke-width="1.5"/>
  <path d="M200,205 Q218,198 235,204 Q250,210 262,202" fill="none" stroke="#c4a8d0" stroke-width="1.2"/>

  <!-- 베개 -->
  <ellipse cx="100" cy="192" rx="36" ry="14" fill="#f5f0e8"/>
  <ellipse cx="100" cy="192" rx="36" ry="14" fill="none" stroke="#e0d8cc" stroke-width="1.5"/>
  <!-- 베개 자국 (머리 눌린 흔적) -->
  <ellipse cx="104" cy="191" rx="18" ry="9" fill="#e8e0d0" opacity="0.6"/>

  <!-- 인물 (상반신만, 일어나는 중) -->
  <!-- 몸통 (이불 위에 앉음) -->
  <ellipse cx="148" cy="196" rx="28" ry="12" fill="#4a7ab5" opacity="0.8"/>

  <!-- 팔 (한쪽은 바닥 짚고) -->
  <!-- 오른팔 (바닥 짚음) -->
  <path d="M168,188 Q185,196 188,206" stroke="#f0c090" stroke-width="9" stroke-linecap="round" fill="none"/>
  <!-- 손 -->
  <circle cx="188" cy="208" r="6" fill="#f0c090"/>

  <!-- 왼팔 -->
  <path d="M128,185 Q118,192 120,200" stroke="#f0c090" stroke-width="8" stroke-linecap="round" fill="none"/>
  <circle cx="120" cy="202" r="5" fill="#f0c090"/>

  <!-- 몸통 상의 (파자마 느낌) -->
  <path d="M122,188 Q148,178 174,188 L172,200 Q148,192 124,200 Z" fill="#5a8ac8"/>
  <!-- 상의 줄무늬 -->
  <line x1="135" y1="180" x2="132" y2="200" stroke="#4a7ab5" stroke-width="2" opacity="0.6"/>
  <line x1="148" y1="178" x2="148" y2="198" stroke="#4a7ab5" stroke-width="2" opacity="0.6"/>
  <line x1="161" y1="180" x2="164" y2="200" stroke="#4a7ab5" stroke-width="2" opacity="0.6"/>

  <!-- 목 -->
  <rect x="142" y="172" width="14" height="12" fill="#f0c090" rx="3"/>

  <!-- 머리 -->
  <circle cx="149" cy="162" r="22" fill="#f0c090"/>

  <!-- 헝클어진 머리카락 (막 일어난 느낌) -->
  <path d="M130,150 Q128,138 135,132 Q140,126 149,128 Q158,126 163,132 Q170,138 168,148" fill="#3a2510" stroke="none"/>
  <!-- 삐친 머리카락들 -->
  <path d="M130,148 Q124,138 128,130 Q126,126 122,130" fill="none" stroke="#3a2510" stroke-width="3.5" stroke-linecap="round"/>
  <path d="M134,142 Q128,132 132,124" fill="none" stroke="#3a2510" stroke-width="3" stroke-linecap="round"/>
  <path d="M168,145 Q174,135 170,127" fill="none" stroke="#3a2510" stroke-width="3.5" stroke-linecap="round"/>
  <path d="M155,140 Q158,130 162,126 Q166,122 164,118" fill="none" stroke="#3a2510" stroke-width="3" stroke-linecap="round"/>
  <!-- 앞머리 삐침 -->
  <path d="M140,140 Q136,128 140,122" fill="none" stroke="#3a2510" stroke-width="3" stroke-linecap="round"/>

  <!-- 눈 (막 뜬 눈, 놀란 표정) -->
  <!-- 왼쪽 눈 -->
  <ellipse cx="141" cy="160" rx="5" ry="5.5" fill="white"/>
  <circle cx="141" cy="161" r="3.2" fill="#4a3020"/>
  <circle cx="142.5" cy="159.5" r="1.2" fill="white"/>
  <!-- 오른쪽 눈 -->
  <ellipse cx="157" cy="160" rx="5" ry="5.5" fill="white"/>
  <circle cx="157" cy="161" r="3.2" fill="#4a3020"/>
  <circle cx="158.5" cy="159.5" r="1.2" fill="white"/>

  <!-- 눈썹 (놀란 표정) -->
  <path d="M136,153 Q141,149 146,152" fill="none" stroke="#3a2510" stroke-width="2" stroke-linecap="round"/>
  <path d="M152,152 Q157,149 162,153" fill="none" stroke="#3a2510" stroke-width="2" stroke-linecap="round"/>

  <!-- 코 -->
  <ellipse cx="149" cy="166" rx="2.5" ry="1.8" fill="#e0a878"/>

  <!-- 입 (벌어진 입, 놀람) -->
  <path d="M143,171 Q149,176 155,171" fill="#c06050" stroke="none"/>
  <ellipse cx="149" cy="172" rx="6" ry="4" fill="#c06050"/>
  <ellipse cx="149" cy="173" rx="4.5" ry="3" fill="#8a2020"/>

  <!-- 당황 표시 (땀방울) -->
  <ellipse cx="170" cy="148" rx="4" ry="6" fill="#90c8f0" opacity="0.8"/>
  <ellipse cx="170" cy="146" rx="2.5" ry="3" fill="#b0d8ff" opacity="0.5"/>

  <!-- 놀람 별표/선 -->
  <line x1="178" y1="140" x2="186" y2="132" stroke="#f0b030" stroke-width="2" stroke-linecap="round" opacity="0.8"/>
  <line x1="182" y1="142" x2="192" y2="138" stroke="#f0b030" stroke-width="2" stroke-linecap="round" opacity="0.8"/>
  <line x1="180" y1="136" x2="184" y2="126" stroke="#f0b030" stroke-width="2" stroke-linecap="round" opacity="0.8"/>

  <!-- 물웅덩이 흔적 (악몽의 잔재) - 희미하게 -->
  <ellipse cx="90" cy="232" rx="35" ry="7" fill="#90b8e0" opacity="0.2"/>
  <ellipse cx="200" cy="238" rx="25" ry="5" fill="#90b8e0" opacity="0.15"/>

  <!-- 고양이 (stage3.svg에서 그대로 가져옴, translate로 위치 이동) -->
  <ellipse cx="68" cy="228" rx="18" ry="5" fill="#6a5a4a" opacity="0.25"/>
  <g transform="translate(-187, 75)">
    <ellipse cx="255" cy="145" rx="18" ry="12" fill="#8a7a6a"/>
    <ellipse cx="255" cy="130" rx="13" ry="12" fill="#8a7a6a"/>
    <polygon points="245,121 241,112 250,118" fill="#8a7a6a"/>
    <polygon points="265,121 269,112 260,118" fill="#8a7a6a"/>
    <polygon points="246,120 243,114 250,118" fill="#c9a0a0"/>
    <polygon points="264,120 267,114 260,118" fill="#c9a0a0"/>
    <ellipse cx="250" cy="131" rx="4" ry="4" fill="#3a3020"/>
    <ellipse cx="260" cy="131" rx="4" ry="4" fill="#3a3020"/>
    <circle cx="251" cy="130" r="1.5" fill="#ffffff" opacity="0.8"/>
    <circle cx="261" cy="130" r="1.5" fill="#ffffff" opacity="0.8"/>
    <line x1="242" y1="136" x2="250" y2="135" stroke="#c8c0b0" stroke-width="0.8"/>
    <line x1="242" y1="138" x2="250" y2="138" stroke="#c8c0b0" stroke-width="0.8"/>
    <line x1="260" y1="135" x2="268" y2="136" stroke="#c8c0b0" stroke-width="0.8"/>
    <line x1="260" y1="138" x2="268" y2="138" stroke="#c8c0b0" stroke-width="0.8"/>
    <ellipse cx="255" cy="137" rx="2.5" ry="1.5" fill="#d08888"/>
  </g>
</svg>
