<svg xmlns="http://www.w3.org/2000/svg" viewBox="0 0 200 160" width="200" height="160">
  <defs>
    <linearGradient id="go_sea" x1="0%" y1="0%" x2="0%" y2="100%">
      <stop offset="0%" stop-color="#1a3a55"/>
      <stop offset="100%" stop-color="#060e1a"/>
    </linearGradient>
    <linearGradient id="go_sky" x1="0%" y1="0%" x2="0%" y2="100%">
      <stop offset="0%" stop-color="#0a0e1a"/>
      <stop offset="100%" stop-color="#1a2a3a"/>
    </linearGradient>
    <linearGradient id="go_boat" x1="0%" y1="0%" x2="0%" y2="100%">
      <stop offset="0%" stop-color="#3a2a18"/>
      <stop offset="100%" stop-color="#1e1510"/>
    </linearGradient>
  </defs>

  <!-- 하늘 -->
  <rect x="0" y="0" width="200" height="95" fill="url(#go_sky)"/>

  <!-- 별들 -->
  <circle cx="15" cy="12" r="0.8" fill="#ffffff" opacity="0.7"/>
  <circle cx="35" cy="8" r="1" fill="#ffffff" opacity="0.8"/>
  <circle cx="55" cy="18" r="0.7" fill="#ffffff" opacity="0.6"/>
  <circle cx="80" cy="6" r="0.9" fill="#ffffff" opacity="0.75"/>
  <circle cx="105" cy="14" r="0.8" fill="#ffffff" opacity="0.65"/>
  <circle cx="130" cy="5" r="1" fill="#ffffff" opacity="0.8"/>
  <circle cx="155" cy="20" r="0.7" fill="#ffffff" opacity="0.7"/>
  <circle cx="178" cy="10" r="0.9" fill="#ffffff" opacity="0.6"/>
  <circle cx="190" cy="22" r="0.6" fill="#ffffff" opacity="0.5"/>
  <circle cx="25" cy="30" r="0.7" fill="#ffffff" opacity="0.5"/>
  <circle cx="70" cy="28" r="0.8" fill="#ffffff" opacity="0.6"/>
  <circle cx="145" cy="32" r="0.7" fill="#ffffff" opacity="0.55"/>
  <circle cx="175" cy="38" r="0.6" fill="#ffffff" opacity="0.5"/>

  <!-- 달 -->
  <circle cx="168" cy="22" r="12" fill="#d4c890"/>
  <circle cx="173" cy="18" r="10" fill="#1a2030"/>
  <!-- 달 표면 크레이터 -->
  <circle cx="163" cy="26" r="2" fill="#c0b878" opacity="0.4"/>
  <circle cx="160" cy="18" r="1.5" fill="#c0b878" opacity="0.3"/>

  <!-- 달빛 반사 (바다) -->
  <path d="M145 92 Q160 88 175 92 Q165 96 150 96 Z" fill="#d4c890" opacity="0.15"/>
  <path d="M148 98 Q160 95 172 98 Q165 101 152 101 Z" fill="#d4c890" opacity="0.1"/>

  <!-- 바다 -->
  <rect x="0" y="88" width="200" height="72" fill="url(#go_sea)"/>
  <!-- 바다 물결 -->
  <path d="M0 88 Q25 84 50 88 Q75 92 100 87 Q125 82 150 87 Q175 92 200 86" fill="none" stroke="#2a5a7a" stroke-width="1.5" opacity="0.7"/>
  <path d="M0 96 Q30 92 60 97 Q90 102 120 95 Q150 88 180 94 Q190 97 200 93" fill="none" stroke="#1a4a6a" stroke-width="1" opacity="0.5"/>
  <path d="M0 104 Q35 100 70 105 Q105 110 140 102 Q165 96 200 101" fill="none" stroke="#1a3a5a" stroke-width="0.8" opacity="0.4"/>

  <!-- 배 -->
  <path d="M50 95 Q100 88 150 95 L140 118 Q100 122 60 118 Z" fill="url(#go_boat)"/>
  <path d="M50 95 Q100 88 150 95" fill="none" stroke="#4a3a22" stroke-width="2"/>
  <!-- 배 측면 목재 결 -->
  <line x1="70" y1="98" x2="65" y2="115" stroke="#2a1e12" stroke-width="0.8" opacity="0.5"/>
  <line x1="90" y1="96" x2="87" y2="116" stroke="#2a1e12" stroke-width="0.8" opacity="0.5"/>
  <line x1="110" y1="95" x2="109" y2="117" stroke="#2a1e12" stroke-width="0.8" opacity="0.5"/>
  <line x1="130" y1="96" x2="131" y2="116" stroke="#2a1e12" stroke-width="0.8" opacity="0.5"/>
  <!-- 배 테두리 -->
  <path d="M60 118 Q100 122 140 118" fill="none" stroke="#4a3a22" stroke-width="1.5"/>

  <!-- 돛대 -->
  <line x1="100" y1="95" x2="100" y2="45" stroke="#2a1a10" stroke-width="2.5"/>
  <!-- 돛 (낡은 느낌) -->
  <path d="M100 48 L100 82 L130 72 Z" fill="#c8b890" opacity="0.8"/>
  <path d="M100 48 L100 82 L130 72 Z" fill="none" stroke="#a09070" stroke-width="1"/>
  <!-- 돛 주름 -->
  <line x1="100" y1="58" x2="125" y2="68" stroke="#a09070" stroke-width="0.5" opacity="0.5"/>
  <line x1="100" y1="68" x2="128" y2="71" stroke="#a09070" stroke-width="0.5" opacity="0.4"/>

  <!-- 잠에서 깬 주인공 (배 위에 앉음) -->
  <!-- 몸 -->
  <rect x="72" y="82" width="22" height="18" rx="4" fill="#c89a64"/>
  <!-- 옷 (잠옷) -->
  <rect x="72" y="88" width="22" height="12" rx="3" fill="#4a6080"/>
  <!-- 머리 -->
  <ellipse cx="83" cy="78" rx="13" ry="12" fill="#d4a574"/>
  <!-- 헝클어진 머리카락 -->
  <path d="M70 73 Q72 64 83 62 Q94 61 96 70" fill="#2a1a0a"/>
  <path d="M70 73 Q68 68 72 65" fill="#2a1a0a"/>
  <path d="M96 70 Q98 65 95 62" fill="#2a1a0a"/>
  <!-- 뜬 눈 (놀람) -->
  <ellipse cx="78" cy="78" rx="4" ry="4.5" fill="#ffffff"/>
  <ellipse cx="88" cy="78" rx="4" ry="4.5" fill="#ffffff"/>
  <ellipse cx="78" cy="79" rx="2.5" ry="2.5" fill="#5a3a1a"/>
  <ellipse cx="88" cy="79" rx="2.5" ry="2.5" fill="#5a3a1a"/>
  <circle cx="79" cy="78" r="1" fill="#2a1a0a"/>
  <circle cx="89" cy="78" r="1" fill="#2a1a0a"/>
  <!-- 눈 하이라이트 -->
  <circle cx="80" cy="77" r="0.8" fill="#ffffff"/>
  <circle cx="90" cy="77" r="0.8" fill="#ffffff"/>
  <!-- 땀 흘림 -->
  <path d="M95" y1="72" x2="99" y2="78" fill="none"/>
  <ellipse cx="97" cy="72" rx="2" ry="3" fill="#88c0d8" opacity="0.7" transform="rotate(20, 97, 72)"/>
  <!-- 입 (놀람/헉) -->
  <ellipse cx="83" cy="86" rx="3.5" ry="4" fill="#7a4a28"/>
  <!-- 손으로 가슴 짚음 -->
  <path d="M72 90 Q65 87 62 92" fill="none" stroke="#c89a64" stroke-width="4" stroke-linecap="round"/>
  <ellipse cx="60" cy="93" rx="5" ry="4" fill="#c89a64"/>

  <!-- 고양이 (배 앞부분에 앉아서 주인공 바라봄) -->
  <ellipse cx="128" cy="97" rx="12" ry="9" fill="#8a7a6a"/>
  <ellipse cx="128" cy="86" rx="10" ry="9" fill="#8a7a6a"/>
  <polygon points="121,79 118,71 125,77" fill="#8a7a6a"/>
  <polygon points="135,79 138,71 131,77" fill="#8a7a6a"/>
  <polygon points="122,78 120,73 125,77" fill="#c9a0a0"/>
  <polygon points="134,78 136,73 131,77" fill="#c9a0a0"/>
  <!-- 고양이 눈 (주인공 쳐다봄) -->
  <ellipse cx="124" cy="87" rx="3.5" ry="3.5" fill="#2a2010"/>
  <ellipse cx="132" cy="87" rx="3.5" ry="3.5" fill="#2a2010"/>
  <circle cx="125" cy="86" r="1.5" fill="#ffffff" opacity="0.9"/>
  <circle cx="133" cy="86" r="1.5" fill="#ffffff" opacity="0.9"/>
  <!-- 고양이 수염 -->
  <line x1="116" y1="91" x2="123" y2="90" stroke="#c0b8a8" stroke-width="0.8"/>
  <line x1="116" y1="93" x2="123" y2="93" stroke="#c0b8a8" stroke-width="0.8"/>
  <line x1="133" y1="90" x2="140" y2="91" stroke="#c0b8a8" stroke-width="0.8"/>
  <line x1="133" y1="93" x2="140" y2="93" stroke="#c0b8a8" stroke-width="0.8"/>
  <ellipse cx="128" cy="93" rx="2" ry="1.5" fill="#d08888"/>
  <!-- 고양이 꼬리 -->
  <path d="M138 102 Q148 100 150 108 Q148 114 140 112" fill="none" stroke="#8a7a6a" stroke-width="3.5" stroke-linecap="round"/>
</svg>
