<svg xmlns="http://www.w3.org/2000/svg" viewBox="0 0 320 200" width="320" height="200">
  <defs>
    <linearGradient id="s3_blanket" x1="0%" y1="0%" x2="100%" y2="100%">
      <stop offset="0%" stop-color="#3a5070"/>
      <stop offset="100%" stop-color="#1e2e45"/>
    </linearGradient>
    <linearGradient id="s3_wet_blanket" x1="0%" y1="70%" x2="0%" y2="100%">
      <stop offset="0%" stop-color="#2e3e55"/>
      <stop offset="100%" stop-color="#1a2a3a"/>
    </linearGradient>
  </defs>

  <!-- 침대 헤드보드 -->
  <rect x="30" y="60" width="260" height="18" rx="4" fill="#2a1f14"/>
  <rect x="35" y="55" width="250" height="12" rx="3" fill="#3a2a18"/>

  <!-- 매트리스 -->
  <rect x="30" y="78" width="260" height="90" rx="4" fill="#e8dcc8"/>
  <rect x="30" y="78" width="260" height="8" rx="4" fill="#f0e4d0"/>

  <!-- 베개 -->
  <rect x="45" y="82" width="75" height="45" rx="8" fill="#f5ede0"/>
  <rect x="48" y="85" width="69" height="39" rx="6" fill="#faf4ec"/>

  <!-- 이불 -->
  <path d="M120 88 Q160 85 290 90 L290 168 Q160 165 120 168 Z" fill="url(#s3_blanket)"/>
  <path d="M120 88 Q160 84 290 89" fill="none" stroke="#4a6080" stroke-width="1.5"/>
  <!-- 이불 물에 젖은 부분 -->
  <path d="M120 150 Q160 148 290 152 L290 168 Q160 165 120 168 Z" fill="url(#s3_wet_blanket)" opacity="0.8"/>

  <!-- 자는 사람 - 얼굴 (옆모습) -->
  <ellipse cx="82" cy="96" rx="22" ry="18" fill="#d4a574"/>
  <!-- 머리카락 -->
  <ellipse cx="82" cy="83" rx="22" ry="12" fill="#2a1a0a"/>
  <path d="M60 90 Q62 80 82 78 Q95 77 100 85" fill="#2a1a0a"/>
  <!-- 심하게 찌푸린 눈썹 -->
  <path d="M68 85 Q73 81 79 85" fill="none" stroke="#3a1a08" stroke-width="2" stroke-linecap="round"/>
  <!-- 꼭 감긴 눈 (악몽 정점) -->
  <path d="M70 90 Q75 87 81 90" fill="none" stroke="#4a2a0a" stroke-width="2" stroke-linecap="round"/>
  <!-- 땀 -->
  <circle cx="90" cy="80" r="2" fill="#b0d0e0" opacity="0.6"/>
  <circle cx="95" cy="88" r="1.5" fill="#b0d0e0" opacity="0.5"/>
  <path d="M77 95 Q79 97 82 95" fill="none" stroke="#a07040" stroke-width="1" stroke-linecap="round"/>
  <!-- 벌어진 입 (숨 막힘) -->
  <path d="M71 101 Q77 105 84 101" fill="none" stroke="#8a5030" stroke-width="1.8" stroke-linecap="round"/>

  <!-- 침대 프레임 하단 -->
  <rect x="30" y="165" width="260" height="10" rx="3" fill="#2a1f14"/>
  <!-- 침대 다리 -->
  <rect x="35" y="172" width="10" height="20" rx="2" fill="#1e1510"/>
  <rect x="275" y="172" width="10" height="20" rx="2" fill="#1e1510"/>

  <!-- 고양이 (헤드보드 위에 올라가 있음, 물 피함) -->
  <ellipse cx="230" cy="58" rx="20" ry="10" fill="#7a6a5a"/>
  <ellipse cx="230" cy="44" rx="13" ry="12" fill="#7a6a5a"/>
  <polygon points="221,35 217,26 226,32" fill="#7a6a5a"/>
  <polygon points="239,35 243,26 234,32" fill="#7a6a5a"/>
  <polygon points="222,34 219,28 226,32" fill="#c09898"/>
  <polygon points="238,34 241,28 234,32" fill="#c09898"/>
  <!-- 극도로 커진 눈 -->
  <ellipse cx="225" cy="45" rx="5" ry="5" fill="#0a0a08"/>
  <ellipse cx="235" cy="45" rx="5" ry="5" fill="#0a0a08"/>
  <circle cx="226" cy="44" r="2.5" fill="#ffffff" opacity="0.95"/>
  <circle cx="236" cy="44" r="2.5" fill="#ffffff" opacity="0.95"/>
  <!-- 고양이 발 (헤드보드 위 아슬아슬) -->
  <path d="M218 60 Q220 58 225 60" fill="none" stroke="#7a6a5a" stroke-width="3" stroke-linecap="round"/>
  <path d="M235 60 Q238 58 242 60" fill="none" stroke="#7a6a5a" stroke-width="3" stroke-linecap="round"/>
  <line x1="220" y1="51" x2="225" y2="50" stroke="#b0a898" stroke-width="0.8"/>
  <line x1="221" y1="53" x2="225" y2="53" stroke="#b0a898" stroke-width="0.8"/>
  <line x1="235" y1="50" x2="240" y2="51" stroke="#b0a898" stroke-width="0.8"/>
  <line x1="235" y1="53" x2="240" y2="53" stroke="#b0a898" stroke-width="0.8"/>
  <ellipse cx="230" cy="51" rx="2" ry="1.5" fill="#d08888"/>

  <!-- z (거의 사라지는 수면) -->
  <text x="108" y="85" font-family="serif" font-size="11" fill="#6677aa" opacity="0.4">z</text>
</svg>