<svg xmlns="http://www.w3.org/2000/svg" viewBox="0 0 320 200" width="320" height="200">
  <defs>
    <linearGradient id="s5_water" x1="0%" y1="0%" x2="0%" y2="100%">
      <stop offset="0%" stop-color="#0a1e30" stop-opacity="0.97"/>
      <stop offset="100%" stop-color="#020408" stop-opacity="1"/>
    </linearGradient>
    <linearGradient id="s5_water_glow" x1="0%" y1="0%" x2="0%" y2="100%">
      <stop offset="0%" stop-color="#1a5070" stop-opacity="0.5"/>
      <stop offset="100%" stop-color="#0a2a40" stop-opacity="0.85"/>
    </linearGradient>
    <filter id="s5_glow">
      <feGaussianBlur stdDeviation="2" result="blur"/>
      <feMerge><feMergeNode in="blur"/><feMergeNode in="SourceGraphic"/></feMerge>
    </filter>
    <filter id="s5_under">
      <feGaussianBlur stdDeviation="2.5"/>
      <feColorMatrix type="matrix" values="0.5 0 0 0 0  0 0.7 0.8 0 0  0 0 1 0 0  0 0 0 0.6 0"/>
    </filter>
  </defs>

  <!-- 침대 헤드보드 (물 위 조금) -->
  <rect x="30" y="60" width="260" height="18" rx="4" fill="#1e1510"/>
  <rect x="35" y="55" width="250" height="12" rx="3" fill="#2a1e12"/>

  <!-- 물 속 침대/이불 실루엣 (흐릿하게) -->
  <rect x="30" y="78" width="260" height="90" rx="4" fill="#1a2838" opacity="0.4" filter="url(#s5_under)"/>

  <!-- 물 속 사람 실루엣 (파란 그림자처럼) -->
  <ellipse cx="82" cy="110" rx="25" ry="30" fill="#1a3a55" opacity="0.35" filter="url(#s5_under)"/>

  <!-- 자는 사람 - 얼굴이 수면 아슬아슬 위 -->
  <ellipse cx="82" cy="88" rx="22" ry="18" fill="#c89a64"/>
  <ellipse cx="82" cy="75" rx="22" ry="12" fill="#2a1a0a"/>
  <path d="M60 82 Q62 72 82 70 Q95 69 100 77" fill="#2a1a0a"/>
  <!-- 심하게 찌푸린 눈썹 -->
  <path d="M68 85 Q73 81 79 85" fill="none" stroke="#3a1a08" stroke-width="2" stroke-linecap="round"/>
  <!-- 꼭 감긴 눈 (악몽 정점) -->
  <path d="M70 90 Q75 87 81 90" fill="none" stroke="#4a2a0a" stroke-width="2" stroke-linecap="round"/>
  <!-- 땀 -->
  <circle cx="90" cy="80" r="2" fill="#b0d0e0" opacity="0.6"/>
  <circle cx="95" cy="88" r="1.5" fill="#b0d0e0" opacity="0.5"/>
  <path d="M77 95 Q79 97 82 95" fill="none" stroke="#a07040" stroke-width="1" stroke-linecap="round"/>
  <!-- 벌어진 입 (숨 막힘) -->
  <path d="M71 101 Q77 105 84 101" fill="none" stroke="#8a5030" stroke-width="1.8" stroke-linecap="round"/>

  <!-- 고양이 (헤드보드 위에 올라가 있음, 물 피함) -->
  <ellipse cx="230" cy="58" rx="20" ry="10" fill="#7a6a5a"/>
  <ellipse cx="230" cy="44" rx="13" ry="12" fill="#7a6a5a"/>
  <polygon points="221,35 217,26 226,32" fill="#7a6a5a"/>
  <polygon points="239,35 243,26 234,32" fill="#7a6a5a"/>
  <polygon points="222,34 219,28 226,32" fill="#c09898"/>
  <polygon points="238,34 241,28 234,32" fill="#c09898"/>
  <!-- 극도로 커진 눈 -->
  <ellipse cx="225" cy="45" rx="5" ry="5" fill="#0a0a08"/>
  <ellipse cx="235" cy="45" rx="5" ry="5" fill="#0a0a08"/>
  <circle cx="226" cy="44" r="2.5" fill="#ffffff" opacity="0.95"/>
  <circle cx="236" cy="44" r="2.5" fill="#ffffff" opacity="0.95"/>
  <!-- 고양이 발 (헤드보드 위 아슬아슬) -->
  <path d="M218 60 Q220 58 225 60" fill="none" stroke="#7a6a5a" stroke-width="3" stroke-linecap="round"/>
  <path d="M235 60 Q238 58 242 60" fill="none" stroke="#7a6a5a" stroke-width="3" stroke-linecap="round"/>
  <line x1="220" y1="51" x2="225" y2="50" stroke="#b0a898" stroke-width="0.8"/>
  <line x1="221" y1="53" x2="225" y2="53" stroke="#b0a898" stroke-width="0.8"/>
  <line x1="235" y1="50" x2="240" y2="51" stroke="#b0a898" stroke-width="0.8"/>
  <line x1="235" y1="53" x2="240" y2="53" stroke="#b0a898" stroke-width="0.8"/>
  <ellipse cx="230" cy="51" rx="2" ry="1.5" fill="#d08888"/>

  <!-- 물 (거의 전부, 얼굴 아래까지) -->
  <path d="M0 96 Q15 90 40 96 Q65 102 95 93 Q120 84 150 91 Q180 98 215 89 Q245 80 280 87 Q300 91 320 85 L320 200 L0 200 Z" fill="url(#s5_water)"/>

  <!-- 수면 투명 레이어 (빛 굴절 효과) -->
  <path d="M0 94 Q15 88 40 94 Q65 100 95 91 Q120 82 150 89 Q180 96 215 87 Q245 78 280 85 Q300 89 320 83 L320 97 Q300 103 280 99 Q245 92 215 101 Q180 110 150 103 Q120 96 95 105 Q65 114 40 108 Q15 102 0 108 Z" fill="url(#s5_water_glow)"/>

  <!-- 강한 물결 -->
  <path d="M0 95 Q40 88 80 95 Q120 102 160 93" fill="none" stroke="#1a6a80" stroke-width="1.8" opacity="0.9"/>
  <path d="M160 93 Q200 84 240 91 Q280 98 320 88" fill="none" stroke="#1a6a80" stroke-width="1.8" opacity="0.9"/>

  <!-- 거품 많이 -->
  <circle cx="20" cy="94" r="3.5" fill="#2a8aaa" opacity="0.55"/>
  <circle cx="60" cy="92" r="2.5" fill="#2a8aaa" opacity="0.45"/>
  <circle cx="110" cy="90" r="3" fill="#2a8aaa" opacity="0.5"/>
  <circle cx="170" cy="90" r="2" fill="#2a8aaa" opacity="0.4"/>
  <circle cx="210" cy="87" r="3.5" fill="#2a8aaa" opacity="0.5"/>
  <circle cx="270" cy="85" r="2.5" fill="#2a8aaa" opacity="0.45"/>
  <circle cx="305" cy="87" r="3" fill="#2a8aaa" opacity="0.4"/>

  <!-- 수면 아래 빛 굴절 (신비로운 분위기) -->
  <path d="M60 110 Q80 125 70 145" fill="none" stroke="#1a5a70" stroke-width="1" opacity="0.3"/>
  <path d="M150 105 Q170 125 155 150" fill="none" stroke="#1a5a70" stroke-width="1" opacity="0.25"/>
  <path d="M240 102 Q260 118 248 140" fill="none" stroke="#1a5a70" stroke-width="1" opacity="0.3"/>
</svg>
